<svg width="72" height="72" viewBox="0 0 72 72" fill="none" xmlns="http://www.w3.org/2000/svg">
<path d="M0 6C0 2.68629 2.68629 0 6 0H48C51.3137 0 54 2.68629 54 6V36C54 39.3137 51.3137 42 48 42H9.75C9.27786 42 8.83328 42.2223 8.55 42.6L2.7 50.4C1.83509 51.5532 0 50.9415 0 49.5V6Z" fill="#A089F2"/>
<rect x="18" y="30" width="54" height="42" rx="6" fill="#EBB1E2"/>
<path d="M24 30H66L45 52.5L24 30Z" fill="white"/>
<rect x="9" y="12" width="6" height="6" rx="3" fill="#AEDBEB"/>
<rect x="18" y="12" width="6" height="6" rx="3" fill="#AEDBEB"/>
<rect x="27" y="12" width="6" height="6" rx="3" fill="#AEDBEB"/>
</svg>
