<svg width="92" height="92" viewBox="0 0 92 92" fill="none" xmlns="http://www.w3.org/2000/svg">
<rect width="92" height="92" rx="20" fill="#388CED"/>
<path d="M46 29C56.7696 29 65.5 37.7304 65.5 48.5H66.5C66.5 37.1782 57.3218 28 46 28V29ZM25.5 48.5C25.5 59.8218 34.6782 69 46 69V68C35.2305 68 26.5 59.2696 26.5 48.5H25.5ZM46 69C57.3218 69 66.5 59.8218 66.5 48.5H65.5C65.5 59.2696 56.7696 68 46 68V69ZM26.5 48.5C26.5 37.7304 35.2305 29 46 29V28C34.6782 28 25.5 37.1782 25.5 48.5H26.5Z" fill="white"/>
<path d="M46 44C48.4853 44 50.5 46.0147 50.5 48.5H51.5C51.5 45.4624 49.0376 43 46 43V44ZM40.5 48.5C40.5 51.5376 42.9624 54 46 54V53C43.5147 53 41.5 50.9853 41.5 48.5H40.5ZM46 54C49.0376 54 51.5 51.5376 51.5 48.5H50.5C50.5 50.9853 48.4853 53 46 53V54ZM41.5 48.5C41.5 46.0147 43.5147 44 46 44V43C42.9624 43 40.5 45.4624 40.5 48.5H41.5Z" fill="white"/>
<path d="M45.5 68.5C45.5 68.7761 45.7239 69 46 69C46.2761 69 46.5 68.7761 46.5 68.5L45.5 68.5ZM46.5 63.5C46.5 63.2239 46.2761 63 46 63C45.7239 63 45.5 63.2239 45.5 63.5L46.5 63.5ZM46.5 68.5L46.5 63.5L45.5 63.5L45.5 68.5L46.5 68.5Z" fill="white"/>
<path d="M45.5 33.5C45.5 33.7761 45.7239 34 46 34C46.2761 34 46.5 33.7761 46.5 33.5L45.5 33.5ZM46.5 28.5C46.5 28.2239 46.2761 28 46 28C45.7239 28 45.5 28.2239 45.5 28.5L46.5 28.5ZM46.5 33.5L46.5 28.5L45.5 28.5L45.5 33.5L46.5 33.5Z" fill="white"/>
<path d="M26 48C25.7239 48 25.5 48.2239 25.5 48.5C25.5 48.7761 25.7239 49 26 49L26 48ZM31 49C31.2761 49 31.5 48.7761 31.5 48.5C31.5 48.2239 31.2761 48 31 48L31 49ZM26 49L31 49L31 48L26 48L26 49Z" fill="white"/>
<path d="M61 48C60.7239 48 60.5 48.2239 60.5 48.5C60.5 48.7761 60.7239 49 61 49L61 48ZM66 49C66.2761 49 66.5 48.7761 66.5 48.5C66.5 48.2239 66.2761 48 66 48L66 49ZM61 49L66 49L66 48L61 48L61 49Z" fill="white"/>
<path d="M49.3965 44.3964C49.2012 44.5917 49.2012 44.9083 49.3965 45.1036C49.5917 45.2988 49.9083 45.2988 50.1036 45.1036L49.3965 44.3964ZM55.1036 40.1036C55.2988 39.9083 55.2988 39.5917 55.1036 39.3964C54.9083 39.2012 54.5917 39.2012 54.3964 39.3964L55.1036 40.1036ZM50.1036 45.1036L55.1036 40.1036L54.3964 39.3964L49.3965 44.3964L50.1036 45.1036Z" fill="white"/>
<path d="M36.8964 56.8964C36.7012 57.0917 36.7012 57.4083 36.8964 57.6036C37.0917 57.7988 37.4083 57.7988 37.6035 57.6036L36.8964 56.8964ZM42.6036 52.6036C42.7988 52.4083 42.7988 52.0917 42.6036 51.8964C42.4083 51.7012 42.0917 51.7012 41.8964 51.8964L42.6036 52.6036ZM37.6035 57.6036L42.6036 52.6036L41.8964 51.8964L36.8964 56.8964L37.6035 57.6036Z" fill="white"/>
<path d="M49 19.5C49.2761 19.5 49.5 19.2761 49.5 19C49.5 18.7239 49.2761 18.5 49 18.5V19.5ZM43 18.5C42.7239 18.5 42.5 18.7239 42.5 19C42.5 19.2761 42.7239 19.5 43 19.5V18.5ZM49 18.5H43V19.5H49V18.5Z" fill="white"/>
</svg>
