<svg width="111" height="24" viewBox="0 0 111 24" fill="none" xmlns="http://www.w3.org/2000/svg">
<path d="M16.4838 9.71429C16.4838 11.6429 16.1356 13.3095 15.4392 14.7143C14.7427 16.119 13.7874 17.2024 12.5731 17.9643C11.3588 18.7262 9.97189 19.1071 8.41237 19.1071C6.85285 19.1071 5.46594 18.7262 4.25166 17.9643C3.03737 17.2024 2.08201 16.119 1.38559 14.7143C0.689157 13.3095 0.340942 11.6429 0.340942 9.71429C0.340942 7.78571 0.689157 6.11905 1.38559 4.71429C2.08201 3.30952 3.03737 2.22619 4.25166 1.46429C5.46594 0.70238 6.85285 0.321428 8.41237 0.321428C9.97189 0.321428 11.3588 0.70238 12.5731 1.46429C13.7874 2.22619 14.7427 3.30952 15.4392 4.71429C16.1356 6.11905 16.4838 7.78571 16.4838 9.71429ZM14.3409 9.71429C14.3409 8.13095 14.0761 6.79464 13.5463 5.70536C13.0225 4.61607 12.3112 3.79167 11.4124 3.23214C10.5195 2.67262 9.51951 2.39286 8.41237 2.39286C7.30523 2.39286 6.30225 2.67262 5.40344 3.23214C4.51058 3.79167 3.79928 4.61607 3.26951 5.70536C2.7457 6.79464 2.4838 8.13095 2.4838 9.71429C2.4838 11.2976 2.7457 12.6339 3.26951 13.7232C3.79928 14.8125 4.51058 15.6369 5.40344 16.1964C6.30225 16.756 7.30523 17.0357 8.41237 17.0357C9.51951 17.0357 10.5195 16.756 11.4124 16.1964C12.3112 15.6369 13.0225 14.8125 13.5463 13.7232C14.0761 12.6339 14.3409 11.2976 14.3409 9.71429Z" fill="white"/>
<path d="M19.9213 24V5.14286H21.957V7.32143H22.207C22.3618 7.08333 22.5761 6.77976 22.8499 6.41071C23.1296 6.03571 23.5284 5.70238 24.0463 5.41071C24.5701 5.1131 25.2784 4.96429 26.1713 4.96429C27.3261 4.96429 28.3439 5.25298 29.2249 5.83036C30.1058 6.40774 30.7933 7.22619 31.2874 8.28571C31.7814 9.34524 32.0284 10.5952 32.0284 12.0357C32.0284 13.4881 31.7814 14.747 31.2874 15.8125C30.7933 16.872 30.1088 17.6935 29.2338 18.2768C28.3588 18.8542 27.3499 19.1429 26.207 19.1429C25.3261 19.1429 24.6207 18.997 24.0909 18.7054C23.5612 18.4077 23.1534 18.0714 22.8677 17.6964C22.582 17.3155 22.3618 17 22.207 16.75H22.0284V24H19.9213ZM21.9927 12C21.9927 13.0357 22.1445 13.9494 22.4481 14.7411C22.7517 15.5268 23.1951 16.1429 23.7784 16.5893C24.3618 17.0298 25.0761 17.25 25.9213 17.25C26.8022 17.25 27.5374 17.0179 28.1267 16.5536C28.7219 16.0833 29.1683 15.4524 29.4659 14.6607C29.7695 13.8631 29.9213 12.9762 29.9213 12C29.9213 11.0357 29.7725 10.1667 29.4749 9.39286C29.1832 8.61309 28.7397 7.99702 28.1445 7.54464C27.5552 7.08631 26.8142 6.85714 25.9213 6.85714C25.0642 6.85714 24.3439 7.0744 23.7606 7.50893C23.1773 7.9375 22.7368 8.53869 22.4392 9.3125C22.1415 10.0804 21.9927 10.9762 21.9927 12Z" fill="white"/>
<path d="M40.9927 19.1429C39.6713 19.1429 38.5314 18.8512 37.5731 18.2679C36.6207 17.6786 35.8856 16.8571 35.3677 15.8036C34.8558 14.744 34.5999 13.5119 34.5999 12.1071C34.5999 10.7024 34.8558 9.46428 35.3677 8.39286C35.8856 7.31548 36.6058 6.47619 37.5284 5.875C38.457 5.26786 39.5403 4.96429 40.7784 4.96429C41.4927 4.96429 42.1981 5.08333 42.8945 5.32143C43.5909 5.55952 44.2249 5.94643 44.7963 6.48214C45.3677 7.0119 45.8231 7.71428 46.1624 8.58929C46.5017 9.46428 46.6713 10.5417 46.6713 11.8214V12.7143H36.0999V10.8929H44.5284C44.5284 10.119 44.3737 9.42857 44.0642 8.82143C43.7606 8.21428 43.3261 7.73512 42.7606 7.38393C42.2011 7.03274 41.5403 6.85714 40.7784 6.85714C39.9392 6.85714 39.213 7.06548 38.5999 7.48214C37.9927 7.89286 37.5255 8.42857 37.1981 9.08928C36.8707 9.75 36.707 10.4583 36.707 11.2143V12.4286C36.707 13.4643 36.8856 14.3423 37.2427 15.0625C37.6058 15.7768 38.1088 16.3214 38.7517 16.6964C39.3945 17.0655 40.1415 17.25 40.9927 17.25C41.5463 17.25 42.0463 17.1726 42.4927 17.0179C42.9451 16.8571 43.335 16.619 43.6624 16.3036C43.9898 15.9821 44.2427 15.5833 44.4213 15.1071L46.457 15.6786C46.2427 16.369 45.8826 16.9762 45.3767 17.5C44.8707 18.0179 44.2457 18.4226 43.5017 18.7143C42.7576 19 41.9213 19.1429 40.9927 19.1429Z" fill="white"/>
<path d="M51.9838 10.6071V18.8571H49.8767V5.14286H51.9124V7.28571H52.0909C52.4124 6.58929 52.9005 6.02976 53.5552 5.60714C54.21 5.17857 55.0552 4.96429 56.0909 4.96429C57.0195 4.96429 57.832 5.15476 58.5284 5.53571C59.2249 5.91071 59.7665 6.48214 60.1534 7.25C60.5403 8.0119 60.7338 8.97619 60.7338 10.1429V18.8571H58.6266V10.2857C58.6266 9.20833 58.3469 8.36905 57.7874 7.76786C57.2278 7.16071 56.46 6.85714 55.4838 6.85714C54.8112 6.85714 54.21 7.00298 53.6802 7.29464C53.1564 7.58631 52.7427 8.0119 52.4392 8.57143C52.1356 9.13095 51.9838 9.80952 51.9838 10.6071Z" fill="white"/>
<path d="M71.9414 0.571428H74.5842L80.7985 15.75H81.0128L87.2271 0.571428H89.87V18.8571H87.7985V4.96429H87.62L81.9057 18.8571H79.9057L74.1914 4.96429H74.0128V18.8571H71.9414V0.571428Z" fill="white"/>
<path d="M94.024 18.8571V5.14286H96.1311V18.8571H94.024ZM95.0954 2.85714C94.6847 2.85714 94.3305 2.71726 94.0329 2.4375C93.7412 2.15774 93.5954 1.82143 93.5954 1.42857C93.5954 1.03571 93.7412 0.699405 94.0329 0.419642C94.3305 0.139881 94.6847 0 95.0954 0C95.5061 0 95.8573 0.139881 96.149 0.419642C96.4466 0.699405 96.5954 1.03571 96.5954 1.42857C96.5954 1.82143 96.4466 2.15774 96.149 2.4375C95.8573 2.71726 95.5061 2.85714 95.0954 2.85714Z" fill="white"/>
<path d="M105.562 19.1429C104.276 19.1429 103.169 18.8393 102.24 18.2321C101.312 17.625 100.598 16.7887 100.098 15.7232C99.5976 14.6577 99.3476 13.4405 99.3476 12.0714C99.3476 10.6786 99.6036 9.4494 100.115 8.38393C100.633 7.3125 101.354 6.47619 102.276 5.875C103.205 5.26786 104.288 4.96429 105.526 4.96429C106.49 4.96429 107.36 5.14286 108.133 5.5C108.907 5.85714 109.541 6.35714 110.035 7C110.529 7.64286 110.836 8.39286 110.955 9.25H108.848C108.687 8.625 108.33 8.07143 107.776 7.58928C107.229 7.10119 106.49 6.85714 105.562 6.85714C104.74 6.85714 104.02 7.07143 103.401 7.5C102.788 7.92262 102.309 8.52083 101.964 9.29464C101.624 10.0625 101.455 10.9643 101.455 12C101.455 13.0595 101.621 13.9821 101.955 14.7679C102.294 15.5536 102.77 16.1637 103.383 16.5982C104.002 17.0327 104.729 17.25 105.562 17.25C106.11 17.25 106.607 17.1548 107.053 16.9643C107.499 16.7738 107.877 16.5 108.187 16.1429C108.496 15.7857 108.717 15.3571 108.848 14.8571H110.955C110.836 15.6667 110.541 16.3958 110.071 17.0446C109.607 17.6875 108.99 18.1994 108.223 18.5804C107.461 18.9554 106.574 19.1429 105.562 19.1429Z" fill="white"/>
</svg>
