<svg width="135" height="40" viewBox="0 0 135 40" fill="none" xmlns="http://www.w3.org/2000/svg">
<g clip-path="url(#clip0_102_51)">
<path fill-rule="evenodd" clip-rule="evenodd" d="M20 40C31.0458 40 40 31.0457 40 20C40 8.9543 31.0458 0 20 0C8.95429 0 0 8.9543 0 20C0 31.0457 8.95429 40 20 40ZM23.087 15.4526C24.7918 13.7477 24.7918 10.9836 23.087 9.27866C21.3821 7.57378 18.618 7.57378 16.9131 9.27866C15.2083 10.9836 15.2083 13.7477 16.9131 15.4526L20 18.5395L23.087 15.4526ZM24.5475 23.087C26.2524 24.7919 29.0165 24.7919 30.7214 23.087C32.4262 21.3821 32.4262 18.618 30.7214 16.9131C29.0165 15.2083 26.2524 15.2083 24.5475 16.9131L21.4606 20.0001L24.5475 23.087ZM23.087 30.7214C24.7918 29.0165 24.7918 26.2524 23.087 24.5475L20 21.4606L16.9131 24.5475C15.2083 26.2524 15.2083 29.0165 16.9131 30.7214C18.618 32.4263 21.3821 32.4263 23.087 30.7214ZM9.27863 23.087C7.57379 21.3821 7.57379 18.618 9.27863 16.9131C10.9836 15.2083 13.7477 15.2083 15.4526 16.9131L18.5395 20.0001L15.4526 23.087C13.7477 24.7919 10.9836 24.7919 9.27863 23.087Z" fill="white"/>
<path fill-rule="evenodd" clip-rule="evenodd" d="M91.1952 27.9755C90.212 27.9755 89.332 27.7218 88.5553 27.2146C87.7785 26.7074 87.1647 25.9711 86.7139 25.0058C86.263 24.0404 86.0376 22.8678 86.0376 21.488C86.0376 20.0918 86.2657 18.9137 86.722 17.9538C87.1837 16.9885 87.8057 16.2603 88.5879 15.7695C89.3701 15.2732 90.2419 15.025 91.2033 15.025C91.9366 15.025 92.5396 15.1505 93.0121 15.4013C93.4847 15.6468 93.8595 15.944 94.1366 16.2931C94.4136 16.6367 94.6281 16.9612 94.7802 17.2666H94.9024V11H97.8601V27.7546H94.9595V25.7748H94.7802C94.6281 26.0802 94.4081 26.4047 94.1203 26.7483C93.8324 27.0865 93.4521 27.3755 92.9796 27.6155C92.507 27.8555 91.9122 27.9755 91.1952 27.9755ZM92.0181 25.5457C92.6428 25.5457 93.1751 25.3766 93.6151 25.0385C94.0551 24.6949 94.3891 24.2177 94.6173 23.6068C94.8454 22.996 94.9595 22.2842 94.9595 21.4716C94.9595 20.659 94.8454 19.9527 94.6173 19.3527C94.3946 18.7528 94.0632 18.2865 93.6232 17.9538C93.1887 17.6211 92.6536 17.4548 92.0181 17.4548C91.3609 17.4548 90.8122 17.6266 90.3722 17.9702C89.9323 18.3138 89.6009 18.7883 89.3782 19.3936C89.1555 19.999 89.0442 20.6917 89.0442 21.4716C89.0442 22.257 89.1555 22.9578 89.3782 23.5741C89.6064 24.185 89.9404 24.6676 90.3804 25.0221C90.8258 25.3712 91.3717 25.5457 92.0181 25.5457Z" fill="white"/>
<path d="M52 15.1886V27.7546H54.9495V20.1136C54.9495 19.5954 55.0527 19.1428 55.2591 18.7555C55.4655 18.3628 55.7426 18.0602 56.0902 17.8474C56.4379 17.6293 56.8235 17.5202 57.2472 17.5202C57.8719 17.5202 58.377 17.7138 58.7627 18.1011C59.1538 18.4883 59.3494 19.0064 59.3494 19.6554V27.7546H62.2418V19.9172C62.2418 19.2082 62.4401 18.6328 62.8366 18.191C63.2386 17.7438 63.7954 17.5202 64.5069 17.5202C65.1044 17.5202 65.6096 17.7029 66.0224 18.0683C66.4353 18.4283 66.6417 18.9982 66.6417 19.7782V27.7546H69.5993V19.32C69.5993 17.9184 69.2354 16.8521 68.5075 16.1213C67.7796 15.3904 66.8399 15.025 65.6884 15.025C64.7812 15.025 63.9963 15.235 63.3336 15.655C62.6764 16.0695 62.2092 16.6258 61.9322 17.3239H61.8019C61.5628 16.6149 61.15 16.0558 60.5634 15.6468C59.9822 15.2323 59.2679 15.025 58.4205 15.025C57.584 15.025 56.8643 15.2295 56.2613 15.6386C55.6584 16.0422 55.2265 16.6039 54.9658 17.3239H54.8192V15.1886H52Z" fill="white"/>
<path fill-rule="evenodd" clip-rule="evenodd" d="M74.8731 27.1901C75.7694 27.73 76.8286 28 78.0508 28C79.2729 28 80.3322 27.73 81.2284 27.1901C82.1247 26.6501 82.8173 25.8948 83.3061 24.924C83.8004 23.9532 84.0476 22.8187 84.0476 21.5207C84.0476 20.2226 83.8004 19.0855 83.3061 18.1092C82.8173 17.133 82.1247 16.3749 81.2284 15.8349C80.3322 15.295 79.2729 15.025 78.0508 15.025C76.8286 15.025 75.7694 15.295 74.8731 15.8349C73.9769 16.3749 73.2816 17.133 72.7873 18.1092C72.2984 19.0855 72.054 20.2226 72.054 21.5207C72.054 22.8187 72.2984 23.9532 72.7873 24.924C73.2816 25.8948 73.9769 26.6501 74.8731 27.1901ZM79.7292 25.0794C79.2838 25.4448 78.7298 25.6275 78.0671 25.6275C77.3881 25.6275 76.8232 25.4448 76.3723 25.0794C75.9269 24.7085 75.5928 24.2122 75.3701 23.5905C75.1529 22.9687 75.0442 22.2761 75.0442 21.5125C75.0442 20.7435 75.1529 20.0481 75.3701 19.4264C75.5928 18.7992 75.9269 18.3001 76.3723 17.9293C76.8232 17.5584 77.3881 17.373 78.0671 17.373C78.7298 17.373 79.2838 17.5584 79.7292 17.9293C80.1746 18.3001 80.506 18.7992 80.7233 19.4264C80.946 20.0481 81.0573 20.7435 81.0573 21.5125C81.0573 22.2761 80.946 22.9687 80.7233 23.5905C80.506 24.2122 80.1746 24.7085 79.7292 25.0794Z" fill="white"/>
<path fill-rule="evenodd" clip-rule="evenodd" d="M103.285 27.1901C104.181 27.73 105.24 28 106.462 28C107.684 28 108.744 27.73 109.64 27.1901C110.536 26.6501 111.229 25.8948 111.718 24.924C112.212 23.9532 112.459 22.8187 112.459 21.5207C112.459 20.2226 112.212 19.0855 111.718 18.1092C111.229 17.133 110.536 16.3749 109.64 15.8349C108.744 15.295 107.684 15.025 106.462 15.025C105.24 15.025 104.181 15.295 103.285 15.8349C102.388 16.3749 101.693 17.133 101.199 18.1092C100.71 19.0855 100.465 20.2226 100.465 21.5207C100.465 22.8187 100.71 23.9532 101.199 24.924C101.693 25.8948 102.388 26.6501 103.285 27.1901ZM108.141 25.0794C107.695 25.4448 107.141 25.6275 106.478 25.6275C105.8 25.6275 105.235 25.4448 104.784 25.0794C104.338 24.7085 104.004 24.2122 103.782 23.5905C103.564 22.9687 103.456 22.2761 103.456 21.5125C103.456 20.7435 103.564 20.0481 103.782 19.4264C104.004 18.7992 104.338 18.3001 104.784 17.9293C105.235 17.5584 105.8 17.373 106.478 17.373C107.141 17.373 107.695 17.5584 108.141 17.9293C108.586 18.3001 108.917 18.7992 109.135 19.4264C109.357 20.0481 109.469 20.7435 109.469 21.5125C109.469 22.2761 109.357 22.9687 109.135 23.5905C108.917 24.2122 108.586 24.7085 108.141 25.0794Z" fill="white"/>
<path d="M114.962 27.7546V15.1886H117.822V17.283H117.953C118.181 16.5576 118.572 15.9986 119.126 15.6059C119.685 15.2077 120.324 15.0087 121.041 15.0087C121.204 15.0087 121.386 15.0168 121.587 15.0332C121.793 15.0441 121.964 15.0632 122.1 15.0905V17.8147C121.975 17.7711 121.777 17.7329 121.505 17.7002C121.239 17.662 120.981 17.6429 120.731 17.6429C120.193 17.6429 119.71 17.7602 119.281 17.9947C118.857 18.2238 118.523 18.5428 118.279 18.9519C118.034 19.3609 117.912 19.8327 117.912 20.3672V27.7546H114.962Z" fill="white"/>
<path fill-rule="evenodd" clip-rule="evenodd" d="M125.826 27.1901C126.722 27.73 127.781 28 129.003 28C130.225 28 131.285 27.73 132.181 27.1901C133.077 26.6501 133.77 25.8948 134.259 24.924C134.753 23.9532 135 22.8187 135 21.5207C135 20.2226 134.753 19.0855 134.259 18.1092C133.77 17.133 133.077 16.3749 132.181 15.8349C131.285 15.295 130.225 15.025 129.003 15.025C127.781 15.025 126.722 15.295 125.826 15.8349C124.929 16.3749 124.234 17.133 123.74 18.1092C123.251 19.0855 123.006 20.2226 123.006 21.5207C123.006 22.8187 123.251 23.9532 123.74 24.924C124.234 25.8948 124.929 26.6501 125.826 27.1901ZM130.682 25.0794C130.236 25.4448 129.682 25.6275 129.019 25.6275C128.341 25.6275 127.776 25.4448 127.325 25.0794C126.879 24.7085 126.545 24.2122 126.323 23.5905C126.105 22.9687 125.997 22.2761 125.997 21.5125C125.997 20.7435 126.105 20.0481 126.323 19.4264C126.545 18.7992 126.879 18.3001 127.325 17.9293C127.776 17.5584 128.341 17.373 129.019 17.373C129.682 17.373 130.236 17.5584 130.682 17.9293C131.127 18.3001 131.458 18.7992 131.676 19.4264C131.898 20.0481 132.01 20.7435 132.01 21.5125C132.01 22.2761 131.898 22.9687 131.676 23.5905C131.458 24.2122 131.127 24.7085 130.682 25.0794Z" fill="white"/>
</g>
<defs>
<clipPath id="clip0_102_51">
<rect width="135" height="40" fill="white"/>
</clipPath>
</defs>
</svg>
