<svg width="135" height="40" viewBox="0 0 135 40" fill="none" xmlns="http://www.w3.org/2000/svg">
<path fill-rule="evenodd" clip-rule="evenodd" d="M20 40C31.0458 40 40 31.0457 40 20C40 8.9543 31.0458 0 20 0C8.95429 0 0 8.9543 0 20C0 31.0457 8.95429 40 20 40ZM23.087 15.4526C24.7918 13.7477 24.7918 10.9836 23.087 9.27866C21.3821 7.57378 18.618 7.57378 16.9131 9.27866C15.2083 10.9836 15.2083 13.7477 16.9131 15.4526L20 18.5395L23.087 15.4526ZM24.5475 23.087C26.2524 24.7919 29.0165 24.7919 30.7214 23.087C32.4262 21.3821 32.4262 18.618 30.7214 16.9131C29.0165 15.2083 26.2524 15.2083 24.5475 16.9131L21.4606 20.0001L24.5475 23.087ZM23.087 30.7214C24.7918 29.0165 24.7918 26.2524 23.087 24.5475L20 21.4606L16.9131 24.5475C15.2083 26.2524 15.2083 29.0165 16.9131 30.7214C18.618 32.4263 21.3821 32.4263 23.087 30.7214ZM9.27863 23.087C7.57379 21.3821 7.57379 18.618 9.27863 16.9131C10.9836 15.2083 13.7477 15.2083 15.4526 16.9131L18.5395 20.0001L15.4526 23.087C13.7477 24.7919 10.9836 24.7919 9.27863 23.087Z" fill="#A092F7"/>
<path d="M52 27.7546V15.1886H54.8192V17.3239H54.9658C55.2265 16.6039 55.6584 16.0422 56.2613 15.6386C56.8643 15.2295 57.584 15.025 58.4205 15.025C59.2679 15.025 59.9822 15.2323 60.5634 15.6468C61.15 16.0558 61.5628 16.6149 61.8019 17.3239H61.9322C62.2092 16.6258 62.6764 16.0695 63.3336 15.655C63.9963 15.235 64.7812 15.025 65.6884 15.025C66.8399 15.025 67.7796 15.3904 68.5075 16.1213C69.2354 16.8521 69.5993 17.9184 69.5993 19.32V27.7546H66.6417V19.7782C66.6417 18.9982 66.4353 18.4283 66.0224 18.0683C65.6096 17.7029 65.1044 17.5202 64.5069 17.5202C63.7954 17.5202 63.2386 17.7438 62.8366 18.191C62.4401 18.6328 62.2418 19.2082 62.2418 19.9172V27.7546H59.3494V19.6554C59.3494 19.0064 59.1538 18.4883 58.7627 18.1011C58.377 17.7138 57.8719 17.5202 57.2472 17.5202C56.8235 17.5202 56.4379 17.6293 56.0902 17.8474C55.7426 18.0602 55.4655 18.3628 55.2591 18.7555C55.0527 19.1428 54.9495 19.5954 54.9495 20.1136V27.7546H52Z" fill="black"/>
<path d="M78.0507 28C76.8285 28 75.7693 27.73 74.873 27.1901C73.9768 26.6501 73.2815 25.8948 72.7872 24.924C72.2983 23.9532 72.0539 22.8187 72.0539 21.5207C72.0539 20.2226 72.2983 19.0855 72.7872 18.1092C73.2815 17.133 73.9768 16.3749 74.873 15.8349C75.7693 15.295 76.8285 15.025 78.0507 15.025C79.2729 15.025 80.3321 15.295 81.2283 15.8349C82.1246 16.3749 82.8172 17.133 83.306 18.1092C83.8003 19.0855 84.0475 20.2226 84.0475 21.5207C84.0475 22.8187 83.8003 23.9532 83.306 24.924C82.8172 25.8948 82.1246 26.6501 81.2283 27.1901C80.3321 27.73 79.2729 28 78.0507 28ZM78.067 25.6275C78.7297 25.6275 79.2837 25.4448 79.7291 25.0794C80.1745 24.7085 80.5059 24.2122 80.7232 23.5905C80.9459 22.9687 81.0572 22.2761 81.0572 21.5125C81.0572 20.7435 80.9459 20.0481 80.7232 19.4264C80.5059 18.7992 80.1745 18.3001 79.7291 17.9293C79.2837 17.5584 78.7297 17.373 78.067 17.373C77.388 17.373 76.8231 17.5584 76.3722 17.9293C75.9268 18.3001 75.5927 18.7992 75.37 19.4264C75.1528 20.0481 75.0441 20.7435 75.0441 21.5125C75.0441 22.2761 75.1528 22.9687 75.37 23.5905C75.5927 24.2122 75.9268 24.7085 76.3722 25.0794C76.8231 25.4448 77.388 25.6275 78.067 25.6275Z" fill="black"/>
<path d="M91.1952 27.9755C90.212 27.9755 89.332 27.7218 88.5553 27.2146C87.7785 26.7074 87.1647 25.9711 86.7139 25.0058C86.263 24.0404 86.0376 22.8678 86.0376 21.488C86.0376 20.0918 86.2657 18.9137 86.722 17.9538C87.1837 16.9885 87.8057 16.2603 88.5879 15.7695C89.3701 15.2732 90.2419 15.025 91.2033 15.025C91.9366 15.025 92.5396 15.1505 93.0121 15.4013C93.4847 15.6468 93.8595 15.944 94.1366 16.2931C94.4136 16.6367 94.6281 16.9612 94.7802 17.2666H94.9024V11H97.8601V27.7546H94.9595V25.7748H94.7802C94.6281 26.0802 94.4081 26.4047 94.1203 26.7483C93.8324 27.0865 93.4521 27.3755 92.9796 27.6155C92.507 27.8555 91.9122 27.9755 91.1952 27.9755ZM92.0181 25.5457C92.6428 25.5457 93.1751 25.3766 93.6151 25.0385C94.0551 24.6949 94.3891 24.2177 94.6173 23.6068C94.8454 22.996 94.9595 22.2842 94.9595 21.4716C94.9595 20.659 94.8454 19.9527 94.6173 19.3527C94.3946 18.7528 94.0632 18.2865 93.6232 17.9538C93.1887 17.6211 92.6536 17.4548 92.0181 17.4548C91.3609 17.4548 90.8122 17.6266 90.3722 17.9702C89.9323 18.3138 89.6009 18.7883 89.3782 19.3936C89.1555 19.999 89.0442 20.6917 89.0442 21.4716C89.0442 22.257 89.1555 22.9578 89.3782 23.5741C89.6064 24.185 89.9404 24.6676 90.3804 25.0221C90.8258 25.3712 91.3717 25.5457 92.0181 25.5457Z" fill="black"/>
<path d="M106.462 28C105.24 28 104.181 27.73 103.285 27.1901C102.388 26.6501 101.693 25.8948 101.199 24.924C100.71 23.9532 100.465 22.8187 100.465 21.5207C100.465 20.2226 100.71 19.0855 101.199 18.1092C101.693 17.133 102.388 16.3749 103.285 15.8349C104.181 15.295 105.24 15.025 106.462 15.025C107.684 15.025 108.744 15.295 109.64 15.8349C110.536 16.3749 111.229 17.133 111.718 18.1092C112.212 19.0855 112.459 20.2226 112.459 21.5207C112.459 22.8187 112.212 23.9532 111.718 24.924C111.229 25.8948 110.536 26.6501 109.64 27.1901C108.744 27.73 107.684 28 106.462 28ZM106.478 25.6275C107.141 25.6275 107.695 25.4448 108.141 25.0794C108.586 24.7085 108.917 24.2122 109.135 23.5905C109.357 22.9687 109.469 22.2761 109.469 21.5125C109.469 20.7435 109.357 20.0481 109.135 19.4264C108.917 18.7992 108.586 18.3001 108.141 17.9293C107.695 17.5584 107.141 17.373 106.478 17.373C105.8 17.373 105.235 17.5584 104.784 17.9293C104.338 18.3001 104.004 18.7992 103.782 19.4264C103.564 20.0481 103.456 20.7435 103.456 21.5125C103.456 22.2761 103.564 22.9687 103.782 23.5905C104.004 24.2122 104.338 24.7085 104.784 25.0794C105.235 25.4448 105.8 25.6275 106.478 25.6275Z" fill="black"/>
<path d="M114.962 27.7546V15.1886H117.822V17.283H117.953C118.181 16.5576 118.572 15.9986 119.126 15.6059C119.685 15.2077 120.324 15.0087 121.041 15.0087C121.204 15.0087 121.386 15.0168 121.587 15.0332C121.793 15.0441 121.964 15.0632 122.1 15.0905V17.8147C121.975 17.7711 121.777 17.7329 121.505 17.7002C121.239 17.662 120.981 17.6429 120.731 17.6429C120.193 17.6429 119.71 17.7602 119.281 17.9947C118.857 18.2238 118.523 18.5428 118.279 18.9519C118.034 19.3609 117.912 19.8327 117.912 20.3672V27.7546H114.962Z" fill="black"/>
<path d="M129.003 28C127.781 28 126.722 27.73 125.826 27.1901C124.929 26.6501 124.234 25.8948 123.74 24.924C123.251 23.9532 123.006 22.8187 123.006 21.5207C123.006 20.2226 123.251 19.0855 123.74 18.1092C124.234 17.133 124.929 16.3749 125.826 15.8349C126.722 15.295 127.781 15.025 129.003 15.025C130.225 15.025 131.285 15.295 132.181 15.8349C133.077 16.3749 133.77 17.133 134.259 18.1092C134.753 19.0855 135 20.2226 135 21.5207C135 22.8187 134.753 23.9532 134.259 24.924C133.77 25.8948 133.077 26.6501 132.181 27.1901C131.285 27.73 130.225 28 129.003 28ZM129.019 25.6275C129.682 25.6275 130.236 25.4448 130.682 25.0794C131.127 24.7085 131.458 24.2122 131.676 23.5905C131.898 22.9687 132.01 22.2761 132.01 21.5125C132.01 20.7435 131.898 20.0481 131.676 19.4264C131.458 18.7992 131.127 18.3001 130.682 17.9293C130.236 17.5584 129.682 17.373 129.019 17.373C128.341 17.373 127.776 17.5584 127.325 17.9293C126.879 18.3001 126.545 18.7992 126.323 19.4264C126.105 20.0481 125.997 20.7435 125.997 21.5125C125.997 22.2761 126.105 22.9687 126.323 23.5905C126.545 24.2122 126.879 24.7085 127.325 25.0794C127.776 25.4448 128.341 25.6275 129.019 25.6275Z" fill="black"/>
</svg>
